<svg xmlns="http://www.w3.org/2000/svg" viewBox="0 0 128 128" width="128" height="128">
  <!-- Arka plan yuvarlak kare -->
  <rect x="4" y="4" width="120" height="120" rx="22" ry="22" fill="#7c6af7"/>

  <!-- Yazıcı gövdesi -->
  <rect x="18" y="52" width="92" height="42" rx="6" ry="6" fill="#1e1e2e"/>

  <!-- Yazıcı üst kapak -->
  <rect x="24" y="34" width="80" height="24" rx="4" ry="4" fill="#2a2a3e"/>

  <!-- Kağıt girişi çizgisi -->
  <rect x="30" y="44" width="68" height="4" rx="2" ry="2" fill="#7c6af7" opacity="0.7"/>

  <!-- Tarama ışık çizgisi (hareketli efekt) -->
  <rect x="18" y="67" width="92" height="5" rx="2" ry="2" fill="#5a9cf8" opacity="0.9"/>

  <!-- Çıkan kağıt -->
  <rect x="32" y="88" width="64" height="3" rx="1.5" ry="1.5" fill="#e0e0f0" opacity="0.6"/>
  <rect x="32" y="93" width="50" height="3" rx="1.5" ry="1.5" fill="#e0e0f0" opacity="0.4"/>

  <!-- Sağ taraf buton/led -->
  <circle cx="98" cy="58" r="4" fill="#50fa7b"/>

  <!-- ADF kağıt yığını -->
  <rect x="44" y="26" width="40" height="3" rx="1.5" fill="#e0e0f0" opacity="0.5"/>
  <rect x="46" y="21" width="36" height="3" rx="1.5" fill="#e0e0f0" opacity="0.35"/>
  <rect x="48" y="16" width="32" height="3" rx="1.5" fill="#e0e0f0" opacity="0.2"/>
</svg>
